<?xml version="1.0" encoding="UTF-8" standalone="no"?>
<svg
   xmlns:dc="http://purl.org/dc/elements/1.1/"
   xmlns:cc="http://creativecommons.org/ns#"
   xmlns:rdf="http://www.w3.org/1999/02/22-rdf-syntax-ns#"
   xmlns:svg="http://www.w3.org/2000/svg"
   xmlns="http://www.w3.org/2000/svg"
   xmlns:sodipodi="http://sodipodi.sourceforge.net/DTD/sodipodi-0.dtd"
   xmlns:inkscape="http://www.inkscape.org/namespaces/inkscape"
   inkscape:export-ydpi="95.919998"
   inkscape:export-xdpi="95.919998"
   inkscape:export-filename="/home/rixx/bookshelf.png"
   inkscape:version="1.0 (4035a4fb49, 2020-05-01)"
   height="125.50124"
   width="901.39557"
   sodipodi:docname="bookshelf-svgrepo-com.svg"
   xml:space="preserve"
   viewBox="0 0 901.39558 125.50124"
   y="0px"
   x="0px"
   id="Capa_1"
   version="1.1"><metadata
   id="metadata1045"><rdf:RDF><cc:Work
       rdf:about=""><dc:format>image/svg+xml</dc:format><dc:type
         rdf:resource="http://purl.org/dc/dcmitype/StillImage" /><dc:title></dc:title></cc:Work></rdf:RDF></metadata><defs
   id="defs1043">
	
	
	
	
	
	
	
	
	
	
	
	
	
	
	
	
	
	
	
	
	
	
	
	
	
		
</defs><sodipodi:namedview
   inkscape:current-layer="Capa_1"
   inkscape:window-maximized="1"
   inkscape:window-y="58"
   inkscape:window-x="0"
   inkscape:cy="53.984569"
   inkscape:cx="850.10682"
   inkscape:zoom="2.7599194"
   fit-margin-bottom="0"
   fit-margin-right="0"
   fit-margin-left="0"
   fit-margin-top="0"
   showgrid="false"
   id="namedview1041"
   inkscape:window-height="1022"
   inkscape:window-width="1920"
   inkscape:pageshadow="2"
   inkscape:pageopacity="0"
   guidetolerance="10"
   gridtolerance="10"
   objecttolerance="10"
   borderopacity="1"
   bordercolor="#666666"
   pagecolor="#ffffff" />
<rect
   x="16.000359"
   y="6.6133385"
   style="fill:#a25425;stroke-width:1.67744"
   width="879.44708"
   height="117.12907"
   id="rect980" /><path
   sodipodi:nodetypes="ccccssccc"
   style="fill:#7f4122"
   d="M 12.148529,6.6133392 V 22.613339 122.40923 h 16 V 54.613343 c 0,-17.673004 14.327,-32.000004 32,-32.000004 H 891.10458 V 6.6133392 Z"
   id="path982" /><path
   inkscape:export-ydpi="95.919998"
   inkscape:export-xdpi="95.919998"
   inkscape:export-filename="/home/rixx/path986.png"
   sodipodi:nodetypes="sccccccsccccccccccccc"
   style="fill:#c87629"
   d="M 885.29593,2.26e-4 H 192.00036 9.067618e-7 C 8.5190676e-4,44.943375 -3.2093238e-5,84.85481 9.0676214e-7,125.50124 64.000121,125.50038 128.00024,125.50089 192.00036,125.50089 c 64.03321,0.001 645.362,-0.002 709.39521,3.5e-4 C 901.15979,75.32236 901.32217,45.388586 901.28657,0 c 0,0 -11.59064,2.26e-4 -15.99064,2.26e-4 z M 889.5,120.19227 h -649.49964 -40 -16 -16 H 12.148529 V 6.6133392 h 155.851831 16 16 40 H 889.5 Z"
   id="path986" />
<g
   transform="translate(-68.264999,-37.578)"
   id="g1010">
</g>
<g
   transform="translate(-68.264999,-37.578)"
   id="g1012">
</g>
<g
   transform="translate(-68.264999,-37.578)"
   id="g1014">
</g>
<g
   transform="translate(-68.264999,-37.578)"
   id="g1016">
</g>
<g
   transform="translate(-68.264999,-37.578)"
   id="g1018">
</g>
<g
   transform="translate(-68.264999,-37.578)"
   id="g1020">
</g>
<g
   transform="translate(-68.264999,-37.578)"
   id="g1022">
</g>
<g
   transform="translate(-68.264999,-37.578)"
   id="g1024">
</g>
<g
   transform="translate(-68.264999,-37.578)"
   id="g1026">
</g>
<g
   transform="translate(-68.264999,-37.578)"
   id="g1028">
</g>
<g
   transform="translate(-68.264999,-37.578)"
   id="g1030">
</g>
<g
   transform="translate(-68.264999,-37.578)"
   id="g1032">
</g>
<g
   transform="translate(-68.264999,-37.578)"
   id="g1034">
</g>
<g
   transform="translate(-68.264999,-37.578)"
   id="g1036">
</g>
<g
   transform="translate(-68.264999,-37.578)"
   id="g1038">
</g>
</svg>
